<svg width="194" height="40" viewBox="0 0 194 40" fill="none" xmlns="http://www.w3.org/2000/svg">
<path d="M19.7519 0.0174323C23.4593 -0.211157 23.8783 1.83263 25.2506 4.72084L27.9994 10.5126L33.1019 21.3523L35.2256 25.877C35.6255 26.7342 36.1104 27.716 36.462 28.5866C35.6797 29.0398 34.6388 29.5444 33.8242 29.9734C31.8831 31.0017 29.9357 32.0185 27.9819 33.0239C27.2463 32.652 26.4991 32.2355 25.7726 31.8424C26.3361 30.9049 26.9399 30.2668 27.3324 29.16C27.6701 28.2195 27.7269 27.2014 27.4959 26.2293C27.2548 25.1826 25.9123 22.4062 25.4168 21.3247C23.9473 18.1058 22.4545 14.8973 20.9383 11.6998C20.6637 11.4222 20.4821 11.3907 20.1167 11.5113C19.8703 11.733 19.5347 12.4401 19.3982 12.7532C17.5887 16.8965 15.3971 21.0353 13.6826 25.2047C13.5167 25.6015 13.3872 26.0125 13.2958 26.4327C12.8261 28.6632 13.8942 30.0997 15.0308 31.8376C14.3119 32.2417 13.5883 32.6372 12.8599 33.024C10.0309 31.5839 7.19471 30.067 4.37988 28.5924C5.25062 26.5883 6.33422 24.4242 7.27416 22.4305L12.7738 10.7589L15.6534 4.68422C15.9864 3.98028 16.36 3.23612 16.6755 2.52895C17.3229 1.07788 18.1563 0.31215 19.7519 0.0174323Z" fill="black"/>
<path d="M20.0493 21.9626C21.0105 21.8984 21.8692 22.0889 22.6982 22.593C23.7413 23.2393 24.4858 24.2701 24.771 25.4614C24.9484 26.213 24.9287 26.9975 24.7142 27.7393C24.3727 28.9479 23.3769 30.4275 22.7009 31.514L20.566 34.9218C20.5065 35.022 20.5081 35.0082 20.4237 35.093L20.3174 35.0442C19.635 33.9152 18.7163 32.3844 17.968 31.2762C16.0131 28.3814 14.6357 25.291 17.9418 22.716C18.5208 22.265 19.3004 22.0503 20.0493 21.9626Z" fill="black"/>
<path d="M20.1162 24.4557C21.216 24.2934 22.242 25.0433 22.4189 26.1384C22.5957 27.2335 21.857 28.267 20.7619 28.4575C20.0407 28.583 19.3079 28.3116 18.8433 27.7472C18.3787 27.1827 18.2544 26.4126 18.5179 25.7311C18.7814 25.0497 19.3918 24.5624 20.1162 24.4557Z" fill="#FF5A5F"/>
<path d="M37.0562 30.0392C37.2442 30.1221 37.4636 30.6895 37.565 30.909C38.6266 33.2074 39.7334 35.4978 40.7663 37.8076C41.1019 38.5584 40.2719 39.3972 39.5082 39.1005C39.0642 38.9282 38.6346 38.6739 38.2145 38.4514C37.3712 38.0057 36.531 37.5543 35.694 37.0975C33.6776 36.0526 31.668 34.9934 29.6664 33.9206L37.0562 30.0392Z" fill="black"/>
<path d="M3.69623 30.0228C5.54993 30.9403 7.37543 31.9429 9.21963 32.8815C9.87311 33.214 10.5362 33.5601 11.1736 33.9213L5.35768 36.9904C4.08566 37.665 2.80191 38.3565 1.52362 39.0209C1.23594 39.1703 0.940561 39.2111 0.630469 39.0872C0.370351 38.9838 0.164722 38.7777 0.0622785 38.5175C-0.0743127 38.1625 0.0353526 37.8488 0.183734 37.5203C0.51783 36.7801 0.877099 36.0457 1.22277 35.3107L3.69623 30.0228Z" fill="black"/>
<path d="M15.9061 33.1731C16.2242 33.416 19.523 38.3883 20.0524 39.1667C16.3642 39.128 12.6113 39.164 8.91802 39.1635L4.58449 39.1624C8.31478 37.2119 12.2324 35.2122 15.9061 33.1731Z" fill="black"/>
<path d="M24.8634 33.1824L36.2607 39.165L20.7598 39.1661C22.1401 37.1801 23.5081 35.1857 24.8634 33.1824Z" fill="black"/>
<path d="M49.2463 39.5257V7.55996H53.5713V39.5257H49.2463ZM43.6237 20.8869V16.9979H59.1939V20.8869H43.6237Z" fill="black"/>
<path d="M63.4307 39.5257V5.66288H67.7558V39.5257H63.4307Z" fill="black"/>
<path d="M83.7911 40C81.7087 40 79.8185 39.4941 78.1205 38.4823C76.4225 37.4389 75.077 36.0319 74.0838 34.2613C73.1227 32.4907 72.6421 30.4988 72.6421 28.2855C72.6421 26.0723 73.1227 24.0803 74.0838 22.3097C75.077 20.5391 76.4065 19.1321 78.0725 18.0887C79.7704 17.0454 81.6767 16.5237 83.7911 16.5237C85.5212 16.5237 87.059 16.8873 88.4045 17.6145C89.7821 18.3101 90.8874 19.2902 91.7204 20.5549C92.5534 21.788 93.0179 23.2267 93.114 24.8708V31.6529C93.0179 33.2654 92.5534 34.704 91.7204 35.9687C90.9195 37.2334 89.8302 38.2294 88.4526 38.9566C87.107 39.6522 85.5532 40 83.7911 40ZM84.512 35.9687C86.6585 35.9687 88.3885 35.2573 89.702 33.8345C91.0156 32.3801 91.6723 30.5304 91.6723 28.2855C91.6723 26.7363 91.368 25.3925 90.7593 24.2542C90.1826 23.0844 89.3496 22.1833 88.2604 21.5509C87.1711 20.8869 85.9056 20.5549 84.4639 20.5549C83.0222 20.5549 81.7407 20.8869 80.6194 21.5509C79.5302 22.2149 78.6652 23.1318 78.0244 24.3017C77.4157 25.4399 77.1113 26.7521 77.1113 28.2381C77.1113 29.7558 77.4157 31.0995 78.0244 32.2694C78.6652 33.4077 79.5462 34.3088 80.6675 34.9727C81.7888 35.6367 83.0703 35.9687 84.512 35.9687ZM91.384 39.5257V33.4551L92.201 27.9535L91.384 22.4994V16.9979H95.7571V39.5257H91.384Z" fill="black"/>
<path d="M109.31 40C108.029 40 106.812 39.8419 105.658 39.5257C104.537 39.1779 103.496 38.7037 102.535 38.1029C101.573 37.4706 100.74 36.7275 100.036 35.8739L102.823 33.1231C103.656 34.1349 104.617 34.8937 105.706 35.3996C106.796 35.8739 108.013 36.111 109.359 36.111C110.704 36.111 111.745 35.8897 112.482 35.447C113.219 34.9727 113.587 34.3246 113.587 33.5025C113.587 32.6804 113.283 32.0481 112.674 31.6054C112.098 31.1312 111.345 30.7517 110.416 30.4672C109.487 30.151 108.493 29.8506 107.436 29.5661C106.411 29.2499 105.434 28.8547 104.505 28.3804C103.576 27.9061 102.807 27.258 102.198 26.4359C101.621 25.6138 101.333 24.523 101.333 23.1634C101.333 21.8039 101.67 20.634 102.342 19.6538C103.015 18.6421 103.944 17.8674 105.13 17.3299C106.347 16.7924 107.805 16.5237 109.503 16.5237C111.297 16.5237 112.883 16.8398 114.26 17.4722C115.67 18.0729 116.823 18.9899 117.72 20.223L114.933 22.9737C114.292 22.1517 113.491 21.5193 112.53 21.0766C111.601 20.634 110.544 20.4127 109.359 20.4127C108.109 20.4127 107.148 20.634 106.475 21.0766C105.834 21.4877 105.514 22.0726 105.514 22.8314C105.514 23.5903 105.802 24.1752 106.379 24.5862C106.956 24.9973 107.709 25.3451 108.638 25.6296C109.599 25.9142 110.592 26.2146 111.617 26.5307C112.642 26.8153 113.619 27.2105 114.549 27.7164C115.478 28.2223 116.231 28.9021 116.807 29.7558C117.416 30.6095 117.72 31.7319 117.72 33.1231C117.72 35.2415 116.951 36.9172 115.414 38.1503C113.908 39.3834 111.873 40 109.31 40Z" fill="black"/>
<path d="M132.99 40C130.748 40 128.729 39.4783 126.935 38.4349C125.141 37.3915 123.716 35.9845 122.658 34.2139C121.601 32.4117 121.073 30.4039 121.073 28.1907C121.073 26.009 121.601 24.0487 122.658 22.3097C123.716 20.5391 125.141 19.1321 126.935 18.0887C128.729 17.0454 130.748 16.5237 132.99 16.5237C135.201 16.5237 137.203 17.0454 138.997 18.0887C140.824 19.1005 142.265 20.4917 143.323 22.2623C144.38 24.0329 144.908 26.009 144.908 28.1907C144.908 30.4039 144.38 32.4117 143.323 34.2139C142.265 35.9845 140.824 37.3915 138.997 38.4349C137.203 39.4783 135.201 40 132.99 40ZM132.99 35.8739C134.432 35.8739 135.714 35.5419 136.835 34.8779C137.956 34.2139 138.837 33.3128 139.478 32.1746C140.119 31.0047 140.439 29.6767 140.439 28.1907C140.439 26.7363 140.103 25.4399 139.43 24.3017C138.789 23.1634 137.908 22.2781 136.787 21.6458C135.698 20.9818 134.432 20.6498 132.99 20.6498C131.549 20.6498 130.267 20.9818 129.146 21.6458C128.025 22.2781 127.144 23.1634 126.503 24.3017C125.862 25.4399 125.542 26.7363 125.542 28.1907C125.542 29.6767 125.862 31.0047 126.503 32.1746C127.144 33.3128 128.025 34.2139 129.146 34.8779C130.267 35.5419 131.549 35.8739 132.99 35.8739Z" fill="black"/>
<path d="M152.639 40C151.742 40 150.989 39.6996 150.381 39.0989C149.804 38.4665 149.516 37.7235 149.516 36.8698C149.516 35.9845 149.804 35.2573 150.381 34.6882C150.989 34.0874 151.742 33.7871 152.639 33.7871C153.536 33.7871 154.273 34.0874 154.85 34.6882C155.459 35.2573 155.763 35.9845 155.763 36.8698C155.763 37.7235 155.459 38.4665 154.85 39.0989C154.273 39.6996 153.536 40 152.639 40Z" fill="black"/>
<path d="M162.829 39.5257V16.9979H167.154V39.5257H162.829ZM164.992 12.4924C164.191 12.4924 163.534 12.2394 163.021 11.7335C162.509 11.196 162.253 10.532 162.253 9.7416C162.253 8.98277 162.509 8.35041 163.021 7.84452C163.534 7.30701 164.191 7.03826 164.992 7.03826C165.793 7.03826 166.449 7.30701 166.962 7.84452C167.475 8.35041 167.731 8.98277 167.731 9.7416C167.731 10.532 167.475 11.196 166.962 11.7335C166.449 12.2394 165.793 12.4924 164.992 12.4924Z" fill="black"/>
<path d="M189.675 39.5257V26.3885C189.675 24.6811 189.13 23.2741 188.041 22.1675C186.952 21.0608 185.542 20.5075 183.812 20.5075C182.659 20.5075 181.634 20.7605 180.737 21.2663C179.839 21.7722 179.135 22.4678 178.622 23.3531C178.109 24.2384 177.853 25.2502 177.853 26.3885L176.075 25.3925C176.075 23.6851 176.46 22.1675 177.228 20.8395C177.997 19.5116 179.071 18.4682 180.448 17.7093C181.826 16.9189 183.38 16.5237 185.11 16.5237C186.84 16.5237 188.361 16.9505 189.675 17.8042C191.021 18.6579 192.078 19.7803 192.847 21.1715C193.616 22.5311 194 23.9855 194 25.5348V39.5257H189.675ZM173.528 39.5257V16.9979H177.853V39.5257H173.528Z" fill="black"/>
</svg>
